<svg width="112" height="120" viewBox="0 0 112 120" fill="none" xmlns="http://www.w3.org/2000/svg">
<rect width="112" height="120" fill="none"/>
<g clip-path="url(#clip0_0_1)">
<rect width="1920" height="2433" transform="translate(-118 -401)" fill="none"/>
<g clip-path="url(#clip1_0_1)">
<mask id="path-1-inside-1_0_1" fill="white">
<path fill-rule="evenodd" clip-rule="evenodd" d="M18.0189 26.5228L33.8542 42.581C34.6306 43.3686 35.2464 44.3036 35.6666 45.3326C36.0869 46.3617 36.3031 47.4646 36.3031 48.5785C36.3031 49.6923 36.0869 50.7953 35.6666 51.8243C35.2464 52.8534 34.6306 53.7884 33.8542 54.576C33.0777 55.3636 32.1559 55.9884 31.1415 56.4146C30.127 56.8409 29.0398 57.0602 27.9417 57.0602C26.8436 57.0602 25.7564 56.8409 24.7419 56.4146C23.7274 55.9884 22.8057 55.3636 22.0293 54.576L6.19902 38.5179C5.42258 37.7303 4.80667 36.7953 4.38647 35.7662C3.96626 34.7372 3.75 33.6342 3.75 32.5204C3.75 31.4066 3.96626 30.3036 4.38647 29.2746C4.80667 28.2454 5.42258 27.3105 6.19902 26.5228C6.97545 25.7352 7.8972 25.1105 8.91168 24.6842C9.92608 24.258 11.0134 24.0386 12.1114 24.0386C13.2095 24.0386 14.2968 24.258 15.3112 24.6842C16.3257 25.1105 17.2424 25.7352 18.0189 26.5228ZM51.8833 60.8696L85.808 95.2824C86.5848 96.0704 87.2008 97.0056 87.6208 98.0344C88.0408 99.0632 88.2568 100.166 88.2568 101.28C88.2568 102.394 88.0408 103.497 87.6208 104.526C87.2008 105.555 86.5848 106.49 85.808 107.278C85.032 108.066 84.1096 108.69 83.0952 109.116C82.0808 109.542 80.9936 109.762 79.8956 109.762C78.7976 109.762 77.7103 109.542 76.6959 109.116C75.6814 108.69 74.7597 108.066 73.9833 107.278L40.0584 72.8646C39.282 72.077 38.6661 71.142 38.2458 70.113C37.8257 69.0839 37.6094 67.981 37.6094 66.8671C37.6094 65.7533 37.8257 64.6503 38.2458 63.6213C38.6661 62.5922 39.282 61.6572 40.0584 60.8696C40.8349 60.082 41.7566 59.4572 42.771 59.031C43.7855 58.6047 44.8728 58.3854 45.9709 58.3854C47.0689 58.3854 48.1562 58.6047 49.1706 59.031C50.185 59.4572 51.1068 60.082 51.8833 60.8696Z"/>
</mask>
<path fill-rule="evenodd" clip-rule="evenodd" d="M18.0189 26.5228L33.8542 42.581C34.6306 43.3686 35.2464 44.3036 35.6666 45.3326C36.0869 46.3617 36.3031 47.4646 36.3031 48.5785C36.3031 49.6923 36.0869 50.7953 35.6666 51.8243C35.2464 52.8534 34.6306 53.7884 33.8542 54.576C33.0777 55.3636 32.1559 55.9884 31.1415 56.4146C30.127 56.8409 29.0398 57.0602 27.9417 57.0602C26.8436 57.0602 25.7564 56.8409 24.7419 56.4146C23.7274 55.9884 22.8057 55.3636 22.0293 54.576L6.19902 38.5179C5.42258 37.7303 4.80667 36.7953 4.38647 35.7662C3.96626 34.7372 3.75 33.6342 3.75 32.5204C3.75 31.4066 3.96626 30.3036 4.38647 29.2746C4.80667 28.2454 5.42258 27.3105 6.19902 26.5228C6.97545 25.7352 7.8972 25.1105 8.91168 24.6842C9.92608 24.258 11.0134 24.0386 12.1114 24.0386C13.2095 24.0386 14.2968 24.258 15.3112 24.6842C16.3257 25.1105 17.2424 25.7352 18.0189 26.5228ZM51.8833 60.8696L85.808 95.2824C86.5848 96.0704 87.2008 97.0056 87.6208 98.0344C88.0408 99.0632 88.2568 100.166 88.2568 101.28C88.2568 102.394 88.0408 103.497 87.6208 104.526C87.2008 105.555 86.5848 106.49 85.808 107.278C85.032 108.066 84.1096 108.69 83.0952 109.116C82.0808 109.542 80.9936 109.762 79.8956 109.762C78.7976 109.762 77.7103 109.542 76.6959 109.116C75.6814 108.69 74.7597 108.066 73.9833 107.278L40.0584 72.8646C39.282 72.077 38.6661 71.142 38.2458 70.113C37.8257 69.0839 37.6094 67.981 37.6094 66.8671C37.6094 65.7533 37.8257 64.6503 38.2458 63.6213C38.6661 62.5922 39.282 61.6572 40.0584 60.8696C40.8349 60.082 41.7566 59.4572 42.771 59.031C43.7855 58.6047 44.8728 58.3854 45.9709 58.3854C47.0689 58.3854 48.1562 58.6047 49.1706 59.031C50.185 59.4572 51.1068 60.082 51.8833 60.8696Z" fill="#E6E6F4" stroke="#8B5CF6" stroke-width="2" mask="url(#path-1-inside-1_0_1)"/>
<mask id="path-2-inside-2_0_1" fill="white">
<path fill-rule="evenodd" clip-rule="evenodd" d="M9.98464 24.3432L101.198 0.281578C103.382 -0.295721 105.702 0.022141 107.656 1.16643C109.611 2.31073 111.043 4.1895 111.643 6.39651C111.938 7.47848 112.017 8.60904 111.877 9.7224C111.736 10.8357 111.378 11.9096 110.825 12.8814C110.272 13.8534 109.533 14.7038 108.653 15.3834C107.772 16.063 106.766 16.5581 105.696 16.8399L14.4933 40.9066C12.3086 41.4837 9.98776 41.1651 8.0328 40.0198C6.0779 38.8745 4.64606 36.9946 4.04708 34.7866C3.75263 33.705 3.67318 32.5747 3.81333 31.4617C3.95347 30.3486 4.31041 29.2749 4.86341 28.303C5.41641 27.3312 6.15441 26.4806 7.03448 25.8009C7.91455 25.121 8.91408 24.6255 9.98464 24.3432Z"/>
</mask>
<path fill-rule="evenodd" clip-rule="evenodd" d="M9.98464 24.3432L101.198 0.281578C103.382 -0.295721 105.702 0.022141 107.656 1.16643C109.611 2.31073 111.043 4.1895 111.643 6.39651C111.938 7.47848 112.017 8.60904 111.877 9.7224C111.736 10.8357 111.378 11.9096 110.825 12.8814C110.272 13.8534 109.533 14.7038 108.653 15.3834C107.772 16.063 106.766 16.5581 105.696 16.8399L14.4933 40.9066C12.3086 41.4837 9.98776 41.1651 8.0328 40.0198C6.0779 38.8745 4.64606 36.9946 4.04708 34.7866C3.75263 33.705 3.67318 32.5747 3.81333 31.4617C3.95347 30.3486 4.31041 29.2749 4.86341 28.303C5.41641 27.3312 6.15441 26.4806 7.03448 25.8009C7.91455 25.121 8.91408 24.6255 9.98464 24.3432Z" fill="#E6E6F4" stroke="#8B5CF6" stroke-width="2" mask="url(#path-2-inside-2_0_1)"/>
<mask id="path-3-inside-3_0_1" fill="white">
<path fill-rule="evenodd" clip-rule="evenodd" d="M71.6745 98.9168L95.4 6.40126C95.6776 5.31478 96.1656 4.29522 96.8352 3.40192C97.5056 2.50862 98.344 1.75942 99.3016 1.19795C100.26 0.636482 101.318 0.273949 102.416 0.131459C103.514 -0.0110295 104.628 0.0693722 105.695 0.367984C107.87 0.976672 109.722 2.42955 110.85 4.41248C111.978 6.39542 112.292 8.74904 111.723 10.9645L88.0032 103.485C87.724 104.57 87.2352 105.589 86.5648 106.481C85.8944 107.373 85.056 108.122 84.0976 108.682C83.14 109.242 82.0816 109.604 80.9848 109.746C79.8875 109.887 78.7736 109.806 77.7077 109.508C75.5322 108.9 73.6797 107.449 72.5508 105.466C71.4218 103.485 71.107 101.132 71.6745 98.9168Z"/>
</mask>
<path fill-rule="evenodd" clip-rule="evenodd" d="M71.6745 98.9168L95.4 6.40126C95.6776 5.31478 96.1656 4.29522 96.8352 3.40192C97.5056 2.50862 98.344 1.75942 99.3016 1.19795C100.26 0.636482 101.318 0.273949 102.416 0.131459C103.514 -0.0110295 104.628 0.0693722 105.695 0.367984C107.87 0.976672 109.722 2.42955 110.85 4.41248C111.978 6.39542 112.292 8.74904 111.723 10.9645L88.0032 103.485C87.724 104.57 87.2352 105.589 86.5648 106.481C85.8944 107.373 85.056 108.122 84.0976 108.682C83.14 109.242 82.0816 109.604 80.9848 109.746C79.8875 109.887 78.7736 109.806 77.7077 109.508C75.5322 108.9 73.6797 107.449 72.5508 105.466C71.4218 103.485 71.107 101.132 71.6745 98.9168Z" fill="#E6E6F4" stroke="#8B5CF6" stroke-width="2" mask="url(#path-3-inside-3_0_1)"/>
<mask id="path-4-inside-4_0_1" fill="white">
<path fill-rule="evenodd" clip-rule="evenodd" d="M68.5641 56.3471L35.6054 89.78C34.817 90.5864 33.8793 91.2272 32.8462 91.6656C31.813 92.1032 30.7047 92.3296 29.585 92.332C28.4653 92.3344 27.3561 92.1128 26.3211 91.6792C25.2862 91.2456 24.3458 90.6088 23.5541 89.8056C22.7623 89.0024 22.1347 88.0488 21.7073 86.9992C21.2798 85.9488 21.061 84.824 21.0634 83.688C21.0657 82.552 21.2892 81.428 21.7209 80.38C22.1526 79.3319 22.7842 78.3807 23.5793 77.581L56.538 44.153C58.135 42.5464 60.2945 41.6471 62.5437 41.6518C64.7929 41.6566 66.9486 42.5651 68.539 44.1784C70.1294 45.7918 71.025 47.9785 71.0298 50.2601C71.0345 52.5416 70.1478 54.727 68.5641 56.3471ZM19.5034 106.114L14.5421 111.152C13.7536 111.958 12.8159 112.599 11.7828 113.037C10.7496 113.475 9.64136 113.702 8.5216 113.704C7.40188 113.706 6.29271 113.484 5.25777 113.051C4.22282 112.618 3.2825 111.981 2.49073 111.178C1.69895 110.374 1.07132 109.42 0.643897 108.37C0.216475 107.321 -0.00232391 106.195 1.86124e-05 105.06C0.00236114 103.924 0.225815 102.8 0.657563 101.752C1.08931 100.704 1.72083 99.7528 2.51591 98.9528L7.47733 93.92C9.0744 92.3136 11.2338 91.4136 13.483 91.4184C15.7322 91.4232 17.8879 92.332 19.4784 93.9456C21.0688 95.5584 21.9644 97.7456 21.969 100.027C21.9738 102.309 21.0872 104.494 19.5034 106.114Z"/>
</mask>
<path fill-rule="evenodd" clip-rule="evenodd" d="M68.5641 56.3471L35.6054 89.78C34.817 90.5864 33.8793 91.2272 32.8462 91.6656C31.813 92.1032 30.7047 92.3296 29.585 92.332C28.4653 92.3344 27.3561 92.1128 26.3211 91.6792C25.2862 91.2456 24.3458 90.6088 23.5541 89.8056C22.7623 89.0024 22.1347 88.0488 21.7073 86.9992C21.2798 85.9488 21.061 84.824 21.0634 83.688C21.0657 82.552 21.2892 81.428 21.7209 80.38C22.1526 79.3319 22.7842 78.3807 23.5793 77.581L56.538 44.153C58.135 42.5464 60.2945 41.6471 62.5437 41.6518C64.7929 41.6566 66.9486 42.5651 68.539 44.1784C70.1294 45.7918 71.025 47.9785 71.0298 50.2601C71.0345 52.5416 70.1478 54.727 68.5641 56.3471ZM19.5034 106.114L14.5421 111.152C13.7536 111.958 12.8159 112.599 11.7828 113.037C10.7496 113.475 9.64136 113.702 8.5216 113.704C7.40188 113.706 6.29271 113.484 5.25777 113.051C4.22282 112.618 3.2825 111.981 2.49073 111.178C1.69895 110.374 1.07132 109.42 0.643897 108.37C0.216475 107.321 -0.00232391 106.195 1.86124e-05 105.06C0.00236114 103.924 0.225815 102.8 0.657563 101.752C1.08931 100.704 1.72083 99.7528 2.51591 98.9528L7.47733 93.92C9.0744 92.3136 11.2338 91.4136 13.483 91.4184C15.7322 91.4232 17.8879 92.332 19.4784 93.9456C21.0688 95.5584 21.9644 97.7456 21.969 100.027C21.9738 102.309 21.0872 104.494 19.5034 106.114Z" fill="#E6E6F4" stroke="#8B5CF6" stroke-width="2" mask="url(#path-4-inside-4_0_1)"/>
</g>
</g>
<defs>
<clipPath id="clip0_0_1">
<rect width="1920" height="2433" fill="white" transform="translate(-118 -401)"/>
</clipPath>
<clipPath id="clip1_0_1">
<rect width="112" height="120" fill="white"/>
</clipPath>
</defs>
</svg>
